<svg width="16" height="16" xmlns="http://www.w3.org/2000/svg"><path style="fill:#999" d="M1.94 3a.968.968 0 0 0-.022.018c-2.557 2.75-2.557 7.21 0 9.96l.028.022H3v-1.875C1.622 9.304 1.622 6.692 3 4.871V3zM13 3v1.871c1.378 1.821 1.378 4.433 0 6.254V13h1.055l.027-.021c2.557-2.751 2.557-7.21 0-9.961A1.096 1.096 0 0 0 14.061 3zM4.162 5a.987.987 0 0 0-.117.105C3.377 5.873 3 6.915 3 8c0 1.086.376 2.128 1.045 2.896.032.038.066.072.102.104H5V8.615a2.152 2.152 0 0 1 0-1.23V5zM11 5v2.385a2.15 2.15 0 0 1 0 1.23V11h.854c.036-.032.07-.066.101-.104C12.625 10.128 13 9.086 13 8c0-1.085-.376-2.127-1.045-2.895A.987.987 0 0 0 11.838 5zM8 6a2 2 0 1 0 0 4 2 2 0 0 0 0-4z"/></svg>