<?xml version="1.0" encoding="UTF-8" standalone="no"?>
<svg
   width="16"
   height="16"
   version="1.1"
   id="svg58"
   sodipodi:docname="connected-symbolic.svg"
   inkscape:version="1.2 (dc2aedaf03, 2022-05-15)"
   xmlns:inkscape="http://www.inkscape.org/namespaces/inkscape"
   xmlns:sodipodi="http://sodipodi.sourceforge.net/DTD/sodipodi-0.dtd"
   xmlns="http://www.w3.org/2000/svg"
   xmlns:svg="http://www.w3.org/2000/svg">
  <defs
     id="defs62" />
  <sodipodi:namedview
     id="namedview60"
     pagecolor="#505050"
     bordercolor="#ffffff"
     borderopacity="1"
     inkscape:showpageshadow="0"
     inkscape:pageopacity="0"
     inkscape:pagecheckerboard="1"
     inkscape:deskcolor="#505050"
     showgrid="false"
     inkscape:zoom="38.493125"
     inkscape:cx="3.9747357"
     inkscape:cy="8.7677994"
     inkscape:window-width="1852"
     inkscape:window-height="1056"
     inkscape:window-x="0"
     inkscape:window-y="0"
     inkscape:window-maximized="1"
     inkscape:current-layer="svg58" />
  <path
     style="fill:#999999"
     d="m 1.9397369,2.9999997 c -0.00724,0.00575 -0.014399,0.011612 -0.021484,0.017578 -2.55691702,2.7510008 -2.55691702,7.2099363 0,9.9609373 0.009,0.0073 0.018114,0.01449 0.027344,0.02148 h 1.0546869 v -1.874999 c -1.3781786,-1.8211987 -1.3781786,-4.4327084 0,-6.2539066 V 2.9999997 Z m 11.0605471,0 v 1.8710938 c 1.378179,1.8211982 1.378179,4.4327079 0,6.2539065 V 13 h 1.054688 c 0.0092,-0.007 0.01834,-0.01418 0.02734,-0.02148 2.556917,-2.751001 2.556917,-7.209937 0,-9.9609378 -0.0071,-0.00597 -0.01428,-0.011829 -0.02148,-0.017578 z m -8.8378908,2 c -0.041396,0.0316 -0.080578,0.066863 -0.1171875,0.1054688 C 3.376899,5.8734713 3.0002838,6.9148192 3.0002838,7.9999997 3.0001614,9.0863347 3.3760312,10.128232 4.0452057,10.896484 4.0768747,10.933714 4.1108147,10.968304 4.1467682,11 H 5.0002838 V 8.9999997 8.6152341 C 4.9417168,8.4191374 4.9104403,8.211627 4.91044,7.9999997 c 0,-0.2120213 0.031277,-0.4192211 0.089844,-0.6152344 v -0.3847656 -2 z m 6.8378908,0 v 2 0.3847656 c 0.05856,0.1960133 0.08984,0.4032131 0.08984,0.6152344 0,0.2116273 -0.03127,0.4191377 -0.08984,0.6152344 V 8.9999997 11 H 11.8538 c 0.03595,-0.03169 0.06989,-0.06629 0.101562,-0.103516 0.669175,-0.768252 1.045044,-1.8101493 1.044922,-2.8964843 0,-1.0851805 -0.376615,-2.1265284 -1.044922,-2.8945312 -0.03661,-0.038606 -0.07579,-0.073869 -0.117187,-0.1054688 z m -3.0000002,1 c -1.1045691,0 -2,0.8954305 -2,2 0,1.1045695 0.8954309,2.0000003 2,2.0000003 1.10457,0 2.0000002,-0.8954308 2.0000002,-2.0000003 0,-1.1045695 -0.8954302,-2 -2.0000002,-2 z"
     id="path56"
     sodipodi:nodetypes="ccccccccccccccccccccccccccscccccccscccccccccsssss" />
</svg>
